<!-- 그림 1 CAST 전체 구조 · gen_figs.py 로 생성 (직접 편집 금지)
     1단위 = 1pt, 폭 451pt. 100% 크기로 삽입할 것. -->
<svg xmlns="http://www.w3.org/2000/svg" viewBox="0 0 451 252" width="451pt" height="252pt"
     font-family="'Malgun Gothic','Apple SD Gothic Neo','Noto Sans KR',sans-serif"
     font-size="9" fill="#000000">
<defs>
  <marker id="a" viewBox="0 0 10 10" refX="9.5" refY="5" markerWidth="5" markerHeight="5" orient="auto-start-reverse">
    <path d="M0,0 L10,5 L0,10 z" fill="#000000"/></marker>
</defs>
<rect width="451" height="252" fill="#fff"/>
<text x="178" y="12" text-anchor="middle" font-weight="bold">작업 요청</text>
<rect x="154" y="16" width="48" height="22" fill="#fff" stroke="#000000" stroke-width="1"/>
<g stroke="#000000" stroke-width="0.6" fill="none"><line x1="160" y1="22" x2="196" y2="22"/><line x1="160" y1="27" x2="196" y2="27"/><line x1="160" y1="32" x2="196" y2="32" stroke-dasharray="2 1.5"/></g>
<text x="178" y="50" text-anchor="middle" font-size="8">작업 j · 마감</text>
<path d="M178,52 L178,68 L200,68 L200,86" fill="none" stroke="#000000" stroke-width="1.4" marker-end="url(#a)"/>
<text x="276" y="12" text-anchor="middle" font-weight="bold">리전 간 지연</text>
<rect x="252" y="16" width="48" height="22" fill="#fff" stroke="#000000" stroke-width="1"/>
<g stroke="#000000" stroke-width="0.7" fill="none"><path d="M262,33 L276,22 L290,33 Z"/></g>
<text x="276" y="50" text-anchor="middle" font-size="8">ℓ(o, r) · N × N</text>
<path d="M276,52 L276,68 L242,68 L242,86" fill="none" stroke="#000000" stroke-width="1.4" marker-end="url(#a)"/>
<rect x="8" y="92" width="56" height="28" fill="#fff" stroke="#000000" stroke-width="1"/>
<text x="36" y="105" text-anchor="middle" font-size="8">gCO₂/kWh</text>
<path d="M14,115 L26,107 L36,111 L48,105 L60,104" fill="none" stroke="#000000" stroke-width="1"/>
<text x="36" y="134" text-anchor="middle" font-weight="bold">탄소집약도 이력</text>
<text x="36" y="145" text-anchor="middle">N 리전 · 시간별</text>
<line x1="64" y1="106" x2="90" y2="106" stroke="#000000" stroke-width="1.4" marker-end="url(#a)"/>
<rect x="82" y="60" width="304" height="118" rx="7" fill="#fff" stroke="#000000" stroke-width="1.5"/>
<text x="89" y="72" font-size="10" font-weight="bold">CAST</text>
<rect x="92" y="86" width="66" height="46" fill="#fff" stroke="#000000" stroke-width="1"/>
<text x="125" y="106" text-anchor="middle" font-weight="bold">LSTM 예측</text>
<text x="125" y="120" text-anchor="middle" font-size="8">168 h → 24 h</text>
<rect x="204" y="86" width="66" height="46" fill="#fff" stroke="#000000" stroke-width="1"/>
<text x="237" y="106" text-anchor="middle" font-weight="bold">공간 이동</text>
<text x="237" y="120" text-anchor="middle" font-size="8">ILP · 용량</text>
<rect x="316" y="86" width="66" height="46" fill="#fff" stroke="#000000" stroke-width="1"/>
<text x="349" y="106" text-anchor="middle" font-weight="bold">시간 이동</text>
<text x="349" y="120" text-anchor="middle" font-size="8">마감 인지</text>
<line x1="158" y1="109" x2="202" y2="109" stroke="#000000" stroke-width="1.1" marker-end="url(#a)"/>
<text x="172" y="102" text-anchor="middle" font-style="italic">Ĉ</text>
<circle cx="186" cy="99" r="1.9" fill="#000000"/>
<text x="180" y="121" text-anchor="middle" font-size="8">t 시점 1점</text>
<line x1="270" y1="109" x2="314" y2="109" stroke="#000000" stroke-width="1.1" marker-end="url(#a)"/>
<text x="292" y="103" text-anchor="middle">리전 r(j)</text>
<path d="M125,132 L125,168 L349,168 L349,134" fill="none" stroke="#000000" stroke-width="1.1" marker-end="url(#a)"/>
<rect x="192" y="157" width="106" height="17" fill="#fff"/>
<polyline points="196.0,161.0 197.8,161.2 199.7,161.7 201.5,162.6 203.3,163.7 205.1,165.0 207.0,166.3 208.8,167.7 210.6,168.9 212.4,169.9 214.3,170.6 216.1,171.0 217.9,171.0 219.7,170.6 221.6,169.9 223.4,168.9 225.2,167.7 227.0,166.3 228.9,165.0 230.7,163.7 232.5,162.6 234.3,161.7 236.2,161.2 238.0,161.0" fill="none" stroke="#000000" stroke-width="0.9" stroke-linejoin="round"/>
<text x="243" y="171" font-style="italic">Ĉ</text>
<text x="251" y="171" font-size="8">24 h 곡선 전체</text>
<path d="M365,132 L365,196" fill="none" stroke="#000000" stroke-width="1.3" marker-end="url(#a)"/>
<rect x="368" y="146" width="62" height="24" fill="#fff"/>
<text x="371" y="156" font-size="8">실행 결정</text>
<text x="371" y="167" font-size="8">(리전, 시각)</text>
<path d="M398,210 L432,210 L432,76 L262,76 L262,84" fill="none" stroke="#000000" stroke-width="1.1" stroke-dasharray="4 2.5" marker-end="url(#a)"/>
<rect x="270" y="62" width="116" height="12" fill="#fff"/>
<text x="384" y="72" text-anchor="end" font-size="8">avail<tspan font-size="6.5" dy="1.5">r</tspan><tspan dy="-1.5"></tspan> · 슬롯별 잔여 용량</text>
<text x="6" y="192" font-weight="bold">리전 R<tspan font-size="6.5" dy="1.5">1</tspan><tspan dy="-1.5"></tspan> … R<tspan font-size="6.5" dy="1.5">N</tspan><tspan dy="-1.5"></tspan></text>
<text x="150" y="192" font-style="italic">동시 실행 수 ≤ avail<tspan font-size="6.5" dy="1.5">r</tspan><tspan dy="-1.5"></tspan></text>
<rect x="70" y="196" width="64" height="28" fill="#fff" stroke="#000000" stroke-width="0.9"/>
<rect x="79" y="201" width="46" height="4" fill="#fff" stroke="#000000" stroke-width="0.5"/>
<rect x="79" y="208" width="46" height="4" fill="#fff" stroke="#000000" stroke-width="0.5"/>
<rect x="79" y="215" width="46" height="4" fill="#fff" stroke="#000000" stroke-width="0.5"/>
<text x="102" y="236" text-anchor="middle">R<tspan font-size="6.5" dy="1.5">1</tspan><tspan dy="-1.5"></tspan></text>
<rect x="154" y="196" width="64" height="28" fill="#fff" stroke="#000000" stroke-width="0.9"/>
<rect x="163" y="201" width="46" height="4" fill="#fff" stroke="#000000" stroke-width="0.5"/>
<rect x="163" y="208" width="46" height="4" fill="#fff" stroke="#000000" stroke-width="0.5"/>
<rect x="163" y="215" width="46" height="4" fill="#fff" stroke="#000000" stroke-width="0.5"/>
<text x="186" y="236" text-anchor="middle">R<tspan font-size="6.5" dy="1.5">2</tspan><tspan dy="-1.5"></tspan></text>
<rect x="238" y="196" width="64" height="28" fill="#fff" stroke="#000000" stroke-width="0.9"/>
<rect x="247" y="201" width="46" height="4" fill="#fff" stroke="#000000" stroke-width="0.5"/>
<rect x="247" y="208" width="46" height="4" fill="#fff" stroke="#000000" stroke-width="0.5"/>
<rect x="247" y="215" width="46" height="4" fill="#fff" stroke="#000000" stroke-width="0.5"/>
<text x="270" y="236" text-anchor="middle">R<tspan font-size="6.5" dy="1.5">3</tspan><tspan dy="-1.5"></tspan></text>
<rect x="334" y="196" width="64" height="28" fill="#fff" stroke="#000000" stroke-width="0.9"/>
<rect x="343" y="201" width="46" height="4" fill="#fff" stroke="#000000" stroke-width="0.5"/>
<rect x="343" y="208" width="46" height="4" fill="#fff" stroke="#000000" stroke-width="0.5"/>
<rect x="343" y="215" width="46" height="4" fill="#fff" stroke="#000000" stroke-width="0.5"/>
<text x="366" y="236" text-anchor="middle">R<tspan font-size="6.5" dy="1.5">N</tspan><tspan dy="-1.5"></tspan></text>
<text x="318" y="214" text-anchor="middle" font-weight="bold">⋯</text>
<line x1="6" y1="240" x2="445" y2="240" stroke="#000000" stroke-width="0.5"/>
<text x="6" y="249" font-size="8">기존 연구는 현재값 1점으로 리전만 정한다. CAST는 24 h 곡선으로 리전과 실행 시각을 함께 정한다.</text>
</svg>